<svg xmlns="http://www.w3.org/2000/svg" viewBox="0 0 872.78 236.86"><defs><style>.cls-1{fill:#007fff;}</style></defs><title>AZUL CIELO 2</title><g id="Capa_2" data-name="Capa 2"><g id="LOGO"><path class="cls-1" d="M104.22,199A14.2,14.2,0,1,0,90,184.75a14.42,14.42,0,0,0,.14,2,0,0,0,0,1,0,0,14.1,14.1,0,0,0,5.8,9.57h0A14.12,14.12,0,0,0,104.22,199Z"/><path class="cls-1" d="M199,0H142.12a61.35,61.35,0,0,0-37.89,13A61.43,61.43,0,0,0,66.32,0H9.47A9.47,9.47,0,0,0,0,9.47V169.31a23.66,23.66,0,0,0,11.19,20.12l.55.33.16.1,7,4.25L28.64,200a1.61,1.61,0,0,0,1.28.1,1.51,1.51,0,0,0,1-1.06,1.54,1.54,0,0,0-.3-1.43,50.68,50.68,0,0,1-3.49-4.83A51.78,51.78,0,0,1,19,166c0-.45,0-.9,0-1.35s0-.89,0-1.34V22A3.07,3.07,0,0,1,22,19H56.85a56.62,56.62,0,0,1,32.79,10.4A57.24,57.24,0,0,1,103.3,43a1.13,1.13,0,0,0,1.84,0,57.47,57.47,0,0,1,13.67-13.68A56.62,56.62,0,0,1,151.6,19h34.82A3.07,3.07,0,0,1,189.5,22V165.14a51.82,51.82,0,0,1-8.18,27.6,53.24,53.24,0,0,1-3.47,4.8l-.06.07a1.63,1.63,0,0,0-.29,1.25,1.59,1.59,0,0,0,1.43,1.29,1.54,1.54,0,0,0,.88-.19l.13-.07,9.56-5.77,7.54-4.55a23.68,23.68,0,0,0,11.4-20.26V9.48A9.47,9.47,0,0,0,199,0Z"/><path class="cls-1" d="M127.47,113.52a23.25,23.25,0,0,1-2.67,7.17c-.1.17-.19.34-.3.51l17.68,10.66,6.67,4c.64-1.06,1.24-2.15,1.8-3.26a51.47,51.47,0,0,0,5.22-16.69,52.11,52.11,0,0,0-51.65-59.09,52.31,52.31,0,0,0-23.67,5.67,52.13,52.13,0,0,0-28,53.42,51.47,51.47,0,0,0,5.22,16.69,52.06,52.06,0,0,0,46.42,28.44,23.68,23.68,0,0,1,4.25,47,23.35,23.35,0,0,1-8.5,0,23.7,23.7,0,0,1-16-35.58L59.63,157.78a52.14,52.14,0,0,0,16.05,70.57h0l3.3,2,.07.05a52.17,52.17,0,0,0,50.58-.16h0l2.92-1.76,0,0a52.06,52.06,0,0,0,13.22-12.33,49,49,0,0,0,3-4.48,52.13,52.13,0,0,0-36.19-78.31,52.4,52.4,0,0,0-8.46-.68,23.55,23.55,0,0,1-7.07-1.08,23.83,23.83,0,0,1-10.86-7.13,24.35,24.35,0,0,1-2.65-3.75A23.49,23.49,0,0,1,81,113.52h0a23.79,23.79,0,0,1,3-16.81,24,24,0,0,1,4.32-5.26,23.7,23.7,0,0,1,39.21,22.07Z"/><path class="cls-1" d="M110,96A14.22,14.22,0,0,0,93.6,99.52a14.69,14.69,0,0,0-1.55,2.09,14.22,14.22,0,0,0,.64,15.65h0a13.78,13.78,0,0,0,1.3,1.56,14.2,14.2,0,0,0,8.4,4.22,13.86,13.86,0,0,0,3.64,0,14,14,0,0,0,8.4-4.22,13.22,13.22,0,0,0,1.32-1.57h0a11.3,11.3,0,0,0,.63-1A14.2,14.2,0,0,0,110,96Z"/><path class="cls-1" d="M250.31,149.71,262.92,137A28.52,28.52,0,0,0,285,147.06c9.45,0,13.87-4.16,13.87-10.6,0-4.91-2-8.32-10.22-9.45l-8.7-1.14c-18.67-2.4-27-11.47-27-26.23,0-15.76,12.36-26.74,33-26.74,13.25,0,23.33,4.29,30.52,12.36L303.79,98.13c-4.17-4.92-9.84-8.33-18.92-8.33-8.58,0-12.74,3.16-12.74,8.58,0,6.05,3,8.32,10.47,9.46l8.7,1.38c18.16,2.91,26.74,10.85,26.74,26.11,0,16.9-12.36,28.63-34.31,28.63C268.22,164,257.88,158.16,250.31,149.71Z"/><path class="cls-1" d="M330.52,162.44V147.18h11.35V89.68H330.52V74.42h41.87V89.68H361v57.5h11.35v15.26Z"/><path class="cls-1" d="M444.27,148.44h-.63c-1.39,9-9.34,15.52-22.58,15.52C400.88,164,385,148.44,385,118.81S401.14,72.9,424.84,72.9c15.77,0,27.37,6.81,33.93,20.44l-15.64,9c-2.65-6.94-8.07-12.36-18.29-12.36-12,0-19.54,6.68-19.54,21.44v14.12c0,14.63,7.56,21.44,19.54,21.44,9.59,0,17.28-4.54,17.28-13.11V129.4H425.73v-16h34.68v49.05H444.27Z"/><path class="cls-1" d="M479.07,74.42h33.17c23.33,0,38.71,14.75,38.71,44s-15.38,44-38.71,44H479.07Zm33.17,71c11.48,0,18.41-6,18.41-20.18V111.62c0-14.12-6.93-20.18-18.41-20.18h-14v54Z"/><path class="cls-1" d="M563.56,118.43c0-29.89,15.39-45.53,38.72-45.53S641,88.54,641,118.43,625.61,164,602.28,164,563.56,148.32,563.56,118.43ZM620.69,125V111.87c0-14.12-6.81-21.94-18.41-21.94s-18.41,7.82-18.41,21.94V125c0,14.12,6.81,21.94,18.41,21.94S620.69,139.11,620.69,125Z"/><path class="cls-1" d="M690.55,91.44v71H671.38v-71H647.55v-17h66.84v17Z"/><path class="cls-1" d="M727.5,162.44v-88h59.9v17H746.67v18H781.6v16.9H746.67v19H787.4v17Z"/><path class="cls-1" d="M800.64,119.06c0-29.76,15.26-46.16,39-46.16,16.27,0,26.49,6.44,32.92,20.69L856,102.16c-2.4-7.44-6.81-12.23-16.4-12.23-11.22,0-18.66,7.44-18.66,21.44v14.12c0,14,7.44,21.44,18.66,21.44,9.46,0,14.88-5.93,17.53-13.11l15.64,9.08c-6.56,13.49-16.9,21.06-33.17,21.06C815.9,164,800.64,148.82,800.64,119.06Z"/></g></g></svg>