<svg xmlns="http://www.w3.org/2000/svg" xmlns:xlink="http://www.w3.org/1999/xlink" viewBox="0 0 353.93 272.99"><defs><style>.cls-1{fill:url(#Degradado_sin_nombre_3);}.cls-2{fill:url(#Degradado_sin_nombre_3-2);}.cls-3{fill:url(#Degradado_sin_nombre_3-3);}.cls-4{fill:url(#Degradado_sin_nombre_3-4);}.cls-5{fill:#f5fafa;}</style><linearGradient id="Degradado_sin_nombre_3" x1="1.33" y1="265.59" x2="251.27" y2="-3.02" gradientUnits="userSpaceOnUse"><stop offset="0" stop-color="#2e4676"/><stop offset="0.61" stop-color="#007fff"/><stop offset="1" stop-color="#17e7df"/></linearGradient><linearGradient id="Degradado_sin_nombre_3-2" x1="24.05" y1="286.73" x2="273.99" y2="18.12" xlink:href="#Degradado_sin_nombre_3"/><linearGradient id="Degradado_sin_nombre_3-3" x1="8.3" y1="272.07" x2="258.24" y2="3.46" xlink:href="#Degradado_sin_nombre_3"/><linearGradient id="Degradado_sin_nombre_3-4" x1="39.81" y1="301.39" x2="289.75" y2="32.78" xlink:href="#Degradado_sin_nombre_3"/></defs><title>ORIGINAL SOBRE FONDO OSCURO 1</title><g id="Capa_2" data-name="Capa 2"><g id="LOGO"><path class="cls-1" d="M255.93,0H208.55A51.14,51.14,0,0,0,177,10.86,51.19,51.19,0,0,0,145.38,0H98A7.89,7.89,0,0,0,90.1,7.89V141.11a19.73,19.73,0,0,0,9.32,16.77l.46.28.14.08,5.87,3.55,8.08,4.87a1.35,1.35,0,0,0,1.07.09,1.29,1.29,0,0,0,.82-.89,1.31,1.31,0,0,0-.25-1.19,46.18,46.18,0,0,1-2.91-4,43.28,43.28,0,0,1-6.81-22.27c0-.37,0-.74,0-1.11s0-.75,0-1.12V18.35a2.57,2.57,0,0,1,2.57-2.56h29A47.35,47.35,0,0,1,176.2,35.86a.93.93,0,0,0,1.53,0,47.4,47.4,0,0,1,38.72-20.07h29A2.56,2.56,0,0,1,248,18.35V137.64a43.18,43.18,0,0,1-9.71,27l-.05.06a1.33,1.33,0,0,0,.95,2.12,1.29,1.29,0,0,0,.73-.16l.11-.06,8-4.8,6.29-3.8a19.76,19.76,0,0,0,9.5-16.89V7.9A7.9,7.9,0,0,0,255.93,0Z"/><path class="cls-2" d="M196.34,94.61a19.55,19.55,0,0,1-2.22,6c-.09.14-.16.28-.25.42l14.73,8.89,5.56,3.36c.53-.88,1-1.79,1.5-2.72a42.55,42.55,0,0,0,3.39-9,40.3,40.3,0,0,0,1-4.94,45,45,0,0,0,.39-5.83A43.45,43.45,0,0,0,182.27,47.7a44.13,44.13,0,0,0-10.61,0,43.45,43.45,0,0,0-38.13,43.11,45,45,0,0,0,.39,5.83,44.45,44.45,0,0,0,1,4.94,42.55,42.55,0,0,0,3.39,9A43.36,43.36,0,0,0,177,134.24a19.75,19.75,0,1,1-16.88,9.51L139.8,131.51a43.45,43.45,0,0,0,13.37,58.81h0l2.75,1.66.06,0a43.46,43.46,0,0,0,42.16-.13h0l2.44-1.47h0A43.42,43.42,0,0,0,177,110.56a19.74,19.74,0,0,1-19.37-16h0a19.74,19.74,0,1,1,39.12-3.8,19.06,19.06,0,0,1-.37,3.8Z"/><path class="cls-3" d="M180.7,82.43a9.18,9.18,0,0,0-10.6,2.29,8.43,8.43,0,0,0-1,1.35,9.17,9.17,0,0,0,.41,10.1h0a8.18,8.18,0,0,0,.84,1,9.18,9.18,0,0,0,13.21,0,10.32,10.32,0,0,0,.85-1h0a6.57,6.57,0,0,0,.4-.62,9,9,0,0,0,1.33-4.74,9.12,9.12,0,0,0-2.32-6.09A9,9,0,0,0,180.7,82.43Z"/><path class="cls-4" d="M170.36,160.36a9.18,9.18,0,0,0,13.21,0,9.26,9.26,0,0,0,.85-1h0c.14-.2.28-.41.4-.62a9.05,9.05,0,0,0,1.33-4.75,9.18,9.18,0,0,0-16.05-6.09,8.9,8.9,0,0,0-1,1.35,9.19,9.19,0,0,0,.41,10.11h0A8.18,8.18,0,0,0,170.36,160.36Z"/><path class="cls-5" d="M0,264.89l7.17-7.24a16.2,16.2,0,0,0,12.55,5.73c5.38,0,7.89-2.36,7.89-6,0-2.8-1.15-4.73-5.81-5.38l-4.95-.64C6.24,250,1.51,244.81,1.51,236.42c0-9,7-15.2,18.78-15.2,7.53,0,13.27,2.44,17.35,7l-7.24,7.31c-2.36-2.79-5.59-4.73-10.75-4.73-4.88,0-7.25,1.79-7.25,4.88,0,3.44,1.73,4.73,6,5.37l4.94.79c10.33,1.65,15.21,6.17,15.21,14.85,0,9.61-7,16.27-19.51,16.27C10.18,273,4.3,269.69,0,264.89Z"/><path class="cls-5" d="M45.6,272.13v-8.67h6.46v-32.7H45.6v-8.68H69.41v8.68H63v32.7h6.45v8.67Z"/><path class="cls-5" d="M110.28,264.17h-.36c-.79,5.09-5.31,8.82-12.83,8.82-11.48,0-20.51-8.82-20.51-25.67s9.18-26.1,22.66-26.1c9,0,15.56,3.87,19.29,11.62l-8.9,5.09c-1.5-3.94-4.59-7-10.39-7-6.82,0-11.12,3.8-11.12,12.19v8c0,8.32,4.3,12.19,11.12,12.19,5.45,0,9.82-2.58,9.82-7.45v-2.51H99.74v-9.11h19.72v27.89h-9.18Z"/><path class="cls-5" d="M130.07,222.08h18.86c13.26,0,22,8.39,22,25s-8.75,25-22,25H130.07Zm18.86,40.37c6.52,0,10.47-3.44,10.47-11.47v-7.74c0-8-4-11.48-10.47-11.48h-8v30.69Z"/><path class="cls-5" d="M178.11,247.11c0-17,8.75-25.89,22-25.89s22,8.89,22,25.89-8.75,25.88-22,25.88S178.11,264.1,178.11,247.11Zm32.48,3.73v-7.46c0-8-3.87-12.48-10.47-12.48s-10.47,4.45-10.47,12.48v7.46c0,8,3.88,12.47,10.47,12.47S210.59,258.87,210.59,250.84Z"/><path class="cls-5" d="M250.32,231.76v40.37h-10.9V231.76H225.86v-9.68h38v9.68Z"/><path class="cls-5" d="M271.32,272.13v-50h34.06v9.68H282.22V242h19.87v9.61H282.22v10.82h23.16v9.68Z"/><path class="cls-5" d="M312.91,247.47c0-16.93,8.68-26.25,22.16-26.25,9.25,0,15.06,3.66,18.71,11.76l-9.39,4.88c-1.36-4.23-3.87-7-9.32-7-6.38,0-10.61,4.23-10.61,12.19v8c0,8,4.23,12.19,10.61,12.19,5.38,0,8.46-3.37,10-7.45l8.89,5.16c-3.73,7.67-9.61,12-18.86,12C321.59,273,312.91,264.39,312.91,247.47Z"/></g></g></svg>