<?xml version="1.0" encoding="utf-8"?>
<!-- Generator: Adobe Illustrator 24.0.2, SVG Export Plug-In . SVG Version: 6.00 Build 0)  -->
<svg version="1.1" xmlns="http://www.w3.org/2000/svg" xmlns:xlink="http://www.w3.org/1999/xlink" x="0px" y="0px"
	 viewBox="0 0 528.8 599.1" style="enable-background:new 0 0 528.8 599.1;" xml:space="preserve">
<style type="text/css">
	.st0{fill:#4D4D4D;}
	.st1{fill:#17234D;}
	.st2{fill:#007FFF;}
	.st3{fill:url(#SVGID_1_);}
	.st4{fill:url(#SVGID_2_);}
	.st5{fill:url(#SVGID_3_);}
	.st6{fill:#FFFFFF;}
	.st7{fill:url(#SVGID_4_);}
	.st8{fill:url(#SVGID_5_);}
	.st9{fill:#F5FAFA;}
	.st10{fill:url(#SVGID_6_);}
	.st11{fill:url(#SVGID_7_);}
	.st12{fill:url(#SVGID_8_);}
	.st13{fill:url(#SVGID_9_);}
	.st14{fill:url(#SVGID_10_);}
	.st15{fill:url(#SVGID_11_);}
	.st16{fill:url(#SVGID_12_);}
	.st17{fill:url(#SVGID_13_);}
	.st18{fill:url(#SVGID_14_);}
	.st19{fill:url(#SVGID_15_);}
	.st20{fill:url(#SVGID_16_);}
	.st21{fill:url(#SVGID_17_);}
	.st22{fill:url(#SVGID_18_);}
	.st23{fill:url(#SVGID_19_);}
	.st24{fill:url(#SVGID_20_);}
	.st25{fill:url(#SVGID_21_);}
	.st26{fill:url(#SVGID_22_);}
	.st27{fill:url(#SVGID_23_);}
	.st28{fill:url(#SVGID_24_);}
	.st29{fill:url(#SVGID_25_);}
	.st30{fill:url(#SVGID_26_);}
	.st31{fill:url(#SVGID_27_);}
	.st32{fill:url(#SVGID_28_);}
	.st33{fill:url(#SVGID_29_);}
	.st34{fill:url(#SVGID_30_);}
	.st35{fill:url(#SVGID_31_);}
	.st36{fill:#17E9E1;}
	.st37{fill:url(#SVGID_32_);}
</style>
<g id="FODNO">
</g>
<g id="LOGO">
	<g>
		<path class="st6" d="M499.7,5.3H358.5c-35.5,0-68.2,12.1-94.1,32.4c-26-20.3-58.7-32.4-94.2-32.4H29C16,5.3,5.5,15.9,5.5,28.9
			v397.1c0,21.1,11.1,39.6,27.8,50l1.4,0.8L35,477l17.5,10.6l24.1,14.5c0.9,0.5,2.1,0.6,3.2,0.3c1.2-0.4,2.1-1.4,2.5-2.6
			c0.3-1.3,0-2.6-0.8-3.6c-3.1-3.8-6-7.8-8.7-12c-12.3-19.2-19.7-41.9-20.3-66.4c0-1.1,0-2.2,0-3.3s0-2.2,0-3.3V60
			c0-4.2,3.4-7.6,7.6-7.6h86.5c30.3,0,58.4,9.6,81.4,25.8c13.2,9.3,24.7,20.8,34,34c1.1,1.6,3.5,1.6,4.6,0c9.3-13.2,20.8-24.7,34-34
			c23-16.3,51.1-25.8,81.4-25.8h86.5c4.2,0,7.6,3.4,7.6,7.6v353.3c0,0.4,0,0.7,0,1.1s0,0.7,0,1.1c-0.2,25.2-7.6,48.8-20.3,68.6
			c-2.7,4.1-5.5,8.1-8.6,11.9c0,0.1-0.1,0.1-0.1,0.2c-0.6,0.9-0.9,2-0.7,3.1c0.3,1.7,1.8,3.1,3.6,3.2c0.8,0.1,1.5-0.1,2.2-0.5
			c0.1-0.1,0.2-0.1,0.3-0.2l23.7-14.3l18.7-11.3c17-10.3,28.3-29,28.3-50.3v-397C523.3,15.9,512.7,5.3,499.7,5.3z"/>
		<path class="st6" d="M322.1,287.3c-1.2,6.4-3.5,12.4-6.6,17.8c-0.2,0.4-0.5,0.8-0.7,1.2l43.9,26.5l16.6,10
			c1.6-2.6,3.1-5.3,4.5-8.1c4.3-8.4,7.7-17.4,10.1-26.7c1.2-4.8,2.2-9.7,2.8-14.7c0.8-5.7,1.2-11.5,1.2-17.4
			c0-50.3-28.7-93.9-70.6-115.3c-13.2-6.7-27.7-11.3-43-13.2c-5.2-0.6-10.5-1-15.8-1c-5.3,0-10.6,0.3-15.8,1
			c-15.3,1.9-29.8,6.4-43,13.1c-21.5,11-39.6,27.8-52,48.4c-11.8,19.5-18.6,42.4-18.6,66.9c0,5.9,0.4,11.7,1.2,17.4
			c0.7,5,1.6,9.9,2.8,14.7c2.4,9.4,5.8,18.3,10.1,26.7c6.8,13.3,15.8,25.2,26.5,35.3c12.3,11.6,26.8,20.8,42.9,26.9
			c14.3,5.4,29.7,8.4,45.9,8.4c18.8,0,35.6,8.9,46.4,22.6c7.8,10,12.5,22.5,12.5,36.2c0,11.1-3.1,21.5-8.4,30.3
			c-8.5,14.2-23,24.5-39.9,27.6c-3.4,0.6-6.9,1-10.6,1s-7.1-0.3-10.6-1c-27.5-5-48.3-29-48.3-57.9c0-11.2,3.1-21.6,8.5-30.5
			l-60.5-36.5c-11.8,19.5-18.7,42.5-18.7,67c0,29.3,9.7,56.2,26.1,77.9c9,11.9,19.9,22.2,32.4,30.4l0.1,0l8.2,4.9l0.2,0.1
			c18.5,10.2,39.8,16.1,62.5,16.1c22.9,0,44.5-6,63.2-16.4l0,0l7.3-4.4l0,0c12.7-8.2,23.8-18.6,32.9-30.6c2.7-3.6,5.2-7.3,7.5-11.1
			c11.8-19.5,18.5-42.4,18.5-66.8c0-37.1-15.6-70.6-40.6-94.1c-18.3-17.3-41.8-29.3-67.8-33.6c-6.8-1.1-13.9-1.7-21-1.7
			c-6.1,0-12-0.9-17.6-2.7c-10.6-3.3-19.9-9.5-27-17.7c-2.5-2.9-4.7-6-6.6-9.3c-3.1-5.5-5.4-11.4-6.6-17.8h0
			c-0.7-3.7-1.1-7.5-1.1-11.3c0-11.1,3.1-21.5,8.5-30.4c2.9-4.9,6.6-9.3,10.7-13.1c5.4-4.9,11.8-8.9,18.8-11.6
			c6.5-2.5,13.5-3.8,20.9-3.8c7.4,0,14.4,1.4,20.9,3.8c7,2.7,13.4,6.6,18.8,11.6c11.8,10.8,19.2,26.3,19.2,43.5
			C323.2,279.9,322.9,283.7,322.1,287.3L322.1,287.3z"/>
		<path class="st6" d="M275.5,251c-3.4-1.5-7.2-2.4-11.1-2.4c-4,0-7.7,0.8-11.1,2.4c-3.6,1.6-6.8,3.9-9.3,6.8c-1.1,1.2-2.1,2.6-3,4
			c-2.5,4.1-3.9,9-3.9,14.1c0,6,1.9,11.5,5.1,16c0,0,0,0,0,0c0.8,1.1,1.6,2.1,2.5,3c4.2,4.4,9.9,7.3,16.2,8.1
			c1.2,0.2,2.3,0.2,3.5,0.2c1.2,0,2.4-0.1,3.5-0.2c6.3-0.8,12-3.8,16.2-8.1c0.9-0.9,1.8-1.9,2.5-3v0c0,0,0,0,0,0
			c0.4-0.6,0.8-1.2,1.2-1.8c2.5-4.1,3.9-9,3.9-14.1c0-7-2.6-13.3-6.9-18.2C282.3,254.9,279.1,252.6,275.5,251z"/>
		<path class="st6" d="M244.7,483.3c4.2,4.4,9.9,7.3,16.2,8.1c1.2,0.2,2.3,0.2,3.5,0.2c1.2,0,2.4-0.1,3.5-0.2
			c6.3-0.8,12-3.8,16.2-8.1c0.9-0.9,1.8-1.9,2.5-3v0c0,0,0,0,0,0c0.4-0.6,0.8-1.2,1.2-1.8c2.5-4.1,3.9-9,3.9-14.1
			c0-7-2.6-13.3-6.9-18.2c-2.6-2.9-5.7-5.2-9.3-6.8c-3.4-1.5-7.2-2.4-11.1-2.4c-4,0-7.7,0.8-11.1,2.4c-3.6,1.6-6.8,3.9-9.3,6.8
			c-1.1,1.2-2.1,2.6-3,4c-2.5,4.1-3.9,9-3.9,14.1c0,6,1.9,11.5,5.1,16c0,0,0,0,0,0C242.9,481.4,243.8,482.4,244.7,483.3z"/>
	</g>
</g>
<g id="PALETA_DE_COLOR">
</g>
</svg>
