<?xml version="1.0" encoding="utf-8"?>
<!-- Generator: Adobe Illustrator 24.0.2, SVG Export Plug-In . SVG Version: 6.00 Build 0)  -->
<svg version="1.1" xmlns="http://www.w3.org/2000/svg" xmlns:xlink="http://www.w3.org/1999/xlink" x="0px" y="0px"
	 viewBox="0 0 664.2 634.4" style="enable-background:new 0 0 664.2 634.4;" xml:space="preserve">
<style type="text/css">
	.st0{fill:#4D4D4D;}
	.st1{fill:#17234D;}
	.st2{fill:#007FFF;}
	.st3{fill:url(#SVGID_1_);}
	.st4{fill:url(#SVGID_2_);}
	.st5{fill:url(#SVGID_3_);}
	.st6{fill:#FFFFFF;}
	.st7{fill:url(#SVGID_4_);}
	.st8{fill:url(#SVGID_5_);}
	.st9{fill:#F5FAFA;}
	.st10{fill:url(#SVGID_6_);}
	.st11{fill:url(#SVGID_7_);}
	.st12{fill:url(#SVGID_8_);}
	.st13{fill:url(#SVGID_9_);}
	.st14{fill:url(#SVGID_10_);}
	.st15{fill:url(#SVGID_11_);}
	.st16{fill:url(#SVGID_12_);}
	.st17{fill:url(#SVGID_13_);}
	.st18{fill:url(#SVGID_14_);}
	.st19{fill:url(#SVGID_15_);}
	.st20{fill:url(#SVGID_16_);}
	.st21{fill:url(#SVGID_17_);}
	.st22{fill:url(#SVGID_18_);}
	.st23{fill:url(#SVGID_19_);}
	.st24{fill:url(#SVGID_20_);}
	.st25{fill:url(#SVGID_21_);}
	.st26{fill:url(#SVGID_22_);}
	.st27{fill:url(#SVGID_23_);}
	.st28{fill:url(#SVGID_24_);}
	.st29{fill:url(#SVGID_25_);}
	.st30{fill:url(#SVGID_26_);}
	.st31{fill:url(#SVGID_27_);}
	.st32{fill:url(#SVGID_28_);}
	.st33{fill:url(#SVGID_29_);}
	.st34{fill:url(#SVGID_30_);}
	.st35{fill:url(#SVGID_31_);}
	.st36{fill:#17E9E1;}
	.st37{fill:url(#SVGID_32_);}
</style>
<g id="FODNO">
</g>
<g id="LOGO">
	<g>
		<g>
			<g>
				<path class="st1" d="M6.4,603.9l21-21.2c9.9,11.1,22.3,16.8,36.8,16.8c15.8,0,23.1-6.9,23.1-17.7c0-8.2-3.4-13.9-17-15.8
					l-14.5-1.9c-31.1-4-45-19.1-45-43.7c0-26.3,20.6-44.6,55.1-44.6c22.1,0,38.9,7.1,50.9,20.6l-21.2,21.4
					C88.6,509.7,79.2,504,64,504c-14.3,0-21.2,5.3-21.2,14.3c0,10.1,5,13.9,17.5,15.8l14.5,2.3c30.3,4.8,44.6,18.1,44.6,43.5
					c0,28.2-20.6,47.7-57.2,47.7C36.3,627.6,19,618,6.4,603.9z"/>
				<path class="st1" d="M140.1,625.1v-25.4h18.9v-95.9h-18.9v-25.4h69.8v25.4H191v95.9h18.9v25.4H140.1z"/>
				<path class="st1" d="M329.8,601.8h-1.1c-2.3,14.9-15.6,25.9-37.6,25.9c-33.6,0-60.1-25.9-60.1-75.3s26.9-76.5,66.4-76.5
					c26.3,0,45.6,11.4,56.6,34.1l-26.1,14.9c-4.4-11.6-13.5-20.6-30.5-20.6c-20,0-32.6,11.1-32.6,35.7v23.5
					c0,24.4,12.6,35.7,32.6,35.7c16,0,28.8-7.6,28.8-21.9V570h-27.3v-26.7h48.7c5,0,9.1,4.1,9.1,9.1v72.7h-26.9V601.8z"/>
				<path class="st1" d="M387.8,478.3h55.3c38.9,0,64.6,24.6,64.6,73.4c0,48.8-25.7,73.4-64.6,73.4h-55.3V478.3z M443.1,596.7
					c19.1,0,30.7-10.1,30.7-33.6v-22.7c0-23.5-11.6-33.6-30.7-33.6h-23.3v90H443.1z"/>
				<path class="st1" d="M528.7,551.7c0-49.8,25.7-75.9,64.6-75.9c38.9,0,64.6,26.1,64.6,75.9s-25.7,75.9-64.6,75.9
					C554.4,627.6,528.7,601.6,528.7,551.7z M624,562.7v-21.9c0-23.5-11.4-36.6-30.7-36.6c-19.3,0-30.7,13-30.7,36.6v21.9
					c0,23.5,11.4,36.6,30.7,36.6C612.6,599.2,624,586.2,624,562.7z"/>
			</g>
		</g>
		<g>
			<linearGradient id="SVGID_1_" gradientUnits="userSpaceOnUse" x1="55.7345" y1="400.0095" x2="595.6069" y2="-63.1039">
				<stop  offset="0" style="stop-color:#17234D"/>
				<stop  offset="4.582969e-02" style="stop-color:#143066"/>
				<stop  offset="0.143" style="stop-color:#0E4894"/>
				<stop  offset="0.2403" style="stop-color:#095CBB"/>
				<stop  offset="0.3362" style="stop-color:#056BD8"/>
				<stop  offset="0.4302" style="stop-color:#0276EE"/>
				<stop  offset="0.5215" style="stop-color:#017DFB"/>
				<stop  offset="0.607" style="stop-color:#007FFF"/>
				<stop  offset="1" style="stop-color:#17E9E1"/>
			</linearGradient>
			<path class="st3" d="M491.8,6.8H396c-24.1,0-46.3,8.2-63.9,22c-17.6-13.8-39.8-22-63.9-22h-95.8c-8.8,0-16,7.1-16,16v269.4
				c0,14.3,7.5,26.9,18.9,33.9l0.9,0.6l0.3,0.2l11.9,7.2l16.3,9.9c0.6,0.3,1.4,0.4,2.2,0.2c0.8-0.3,1.5-1,1.7-1.8
				c0.2-0.9,0-1.8-0.5-2.4c-2.1-2.6-4.1-5.3-5.9-8.1c-8.4-13.1-13.3-28.5-13.8-45c0-0.8,0-1.5,0-2.3s0-1.5,0-2.3V43.9
				c0-2.9,2.3-5.2,5.2-5.2h58.7c20.6,0,39.6,6.5,55.3,17.5c8.9,6.3,16.7,14.1,23,23.1c0.8,1.1,2.3,1.1,3.1,0
				c6.3-8.9,14.1-16.7,23-23.1c15.6-11,34.7-17.5,55.3-17.5h58.7c2.9,0,5.2,2.3,5.2,5.2v239.7c0,0.3,0,0.5,0,0.8c0,0.3,0,0.5,0,0.8
				c-0.1,17.1-5.2,33.1-13.8,46.5c-1.8,2.8-3.8,5.5-5.8,8.1c0,0-0.1,0.1-0.1,0.1c-0.4,0.6-0.6,1.3-0.5,2.1c0.2,1.2,1.2,2.1,2.4,2.2
				c0.5,0,1-0.1,1.5-0.3c0.1,0,0.1-0.1,0.2-0.1l16.1-9.7l12.7-7.7c11.5-7,19.2-19.7,19.2-34.1V22.7C507.8,13.9,500.6,6.8,491.8,6.8z
				"/>
			<linearGradient id="SVGID_2_" gradientUnits="userSpaceOnUse" x1="102.0365" y1="393.8116" x2="570.2671" y2="109.8029">
				<stop  offset="0" style="stop-color:#17234D"/>
				<stop  offset="0.607" style="stop-color:#007FFF"/>
				<stop  offset="1" style="stop-color:#17E9E1"/>
			</linearGradient>
			<path class="st4" d="M371.3,198.1c-0.8,4.3-2.4,8.4-4.5,12.1c-0.2,0.3-0.3,0.6-0.5,0.8l29.8,18l11.2,6.8c1.1-1.8,2.1-3.6,3-5.5
				c2.9-5.7,5.2-11.8,6.9-18.1c0.8-3.3,1.5-6.6,1.9-10c0.5-3.9,0.8-7.8,0.8-11.8c0-34.1-19.5-63.7-47.9-78.3
				c-8.9-4.6-18.8-7.7-29.2-8.9c-3.5-0.4-7.1-0.7-10.7-0.7c-3.6,0-7.2,0.2-10.7,0.7c-10.4,1.3-20.2,4.3-29.2,8.9
				c-14.6,7.5-26.8,18.9-35.3,32.9c-8,13.2-12.6,28.8-12.6,45.4c0,4,0.3,7.9,0.8,11.8c0.4,3.4,1.1,6.7,1.9,10
				c1.6,6.3,3.9,12.4,6.9,18.1c4.6,9,10.7,17.1,18,24c8.3,7.9,18.2,14.1,29.1,18.3c9.7,3.7,20.2,5.7,31.2,5.7
				c12.8,0,24.2,6,31.5,15.3c5.3,6.8,8.5,15.3,8.5,24.6c0,7.5-2.1,14.6-5.7,20.6c-5.8,9.6-15.6,16.6-27.1,18.7
				c-2.3,0.4-4.7,0.6-7.2,0.6s-4.8-0.2-7.2-0.6c-18.6-3.4-32.8-19.7-32.8-39.3c0-7.6,2.1-14.7,5.8-20.7l-41-24.8
				c-8,13.3-12.7,28.8-12.7,45.5c0,19.9,6.6,38.2,17.7,52.9c6.1,8.1,13.5,15.1,22,20.6l0,0l5.6,3.4l0.1,0.1
				c12.6,6.9,27,10.9,42.4,10.9c15.6,0,30.2-4,42.9-11.2l0,0l4.9-3l0,0c8.6-5.6,16.1-12.6,22.3-20.8c1.8-2.4,3.5-4.9,5.1-7.5
				c8-13.2,12.6-28.7,12.6-45.3c0-25.2-10.6-47.9-27.6-63.9c-12.4-11.8-28.4-19.9-46-22.8c-4.6-0.8-9.4-1.2-14.3-1.2
				c-4.2,0-8.2-0.6-11.9-1.8c-7.2-2.2-13.5-6.5-18.3-12c-1.7-1.9-3.2-4.1-4.5-6.3c-2.1-3.7-3.6-7.8-4.5-12.1h0
				c-0.5-2.5-0.7-5.1-0.7-7.7c0-7.5,2.1-14.6,5.7-20.6c2-3.3,4.5-6.3,7.3-8.9c3.7-3.4,8-6,12.8-7.8c4.4-1.7,9.2-2.6,14.2-2.6
				c5,0,9.8,0.9,14.2,2.6c4.8,1.8,9.1,4.5,12.8,7.8c8,7.3,13,17.8,13,29.5C372,193,371.8,195.6,371.3,198.1L371.3,198.1z"/>
			<linearGradient id="SVGID_3_" gradientUnits="userSpaceOnUse" x1="73.7242" y1="347.1346" x2="541.9548" y2="63.1258">
				<stop  offset="0" style="stop-color:#17234D"/>
				<stop  offset="0.607" style="stop-color:#007FFF"/>
				<stop  offset="1" style="stop-color:#17E9E1"/>
			</linearGradient>
			<path class="st5" d="M339.7,173.4c-2.3-1-4.9-1.6-7.6-1.6c-2.7,0-5.2,0.6-7.5,1.6c-2.4,1.1-4.6,2.7-6.3,4.6
				c-0.8,0.8-1.4,1.8-2,2.7c-1.7,2.8-2.7,6.1-2.7,9.6c0,4,1.3,7.8,3.5,10.8c0,0,0,0,0,0c0.5,0.7,1.1,1.4,1.7,2c2.9,3,6.7,5,11,5.5
				c0.8,0.1,1.6,0.2,2.4,0.2c0.8,0,1.6,0,2.4-0.2c4.3-0.5,8.1-2.6,11-5.5c0.6-0.6,1.2-1.3,1.7-2v0c0,0,0,0,0,0
				c0.3-0.4,0.6-0.8,0.8-1.3c1.7-2.8,2.7-6.1,2.7-9.6c0-4.7-1.8-9.1-4.7-12.3C344.3,176.1,342.1,174.5,339.7,173.4z"/>
			<linearGradient id="SVGID_4_" gradientUnits="userSpaceOnUse" x1="130.3768" y1="440.5349" x2="598.6075" y2="156.5262">
				<stop  offset="0" style="stop-color:#17234D"/>
				<stop  offset="0.607" style="stop-color:#007FFF"/>
				<stop  offset="1" style="stop-color:#17E9E1"/>
			</linearGradient>
			<path class="st7" d="M318.8,331.1c2.9,3,6.7,5,11,5.5c0.8,0.1,1.6,0.2,2.4,0.2c0.8,0,1.6,0,2.4-0.2c4.3-0.5,8.1-2.6,11-5.5
				c0.6-0.6,1.2-1.3,1.7-2v0c0,0,0,0,0,0c0.3-0.4,0.6-0.8,0.8-1.3c1.7-2.8,2.7-6.1,2.7-9.6c0-4.7-1.8-9.1-4.7-12.3
				c-1.7-2-3.9-3.6-6.3-4.6c-2.3-1-4.9-1.6-7.6-1.6c-2.7,0-5.2,0.6-7.5,1.6c-2.4,1.1-4.6,2.7-6.3,4.6c-0.8,0.8-1.4,1.8-2,2.7
				c-1.7,2.8-2.7,6.1-2.7,9.6c0,4,1.3,7.8,3.5,10.8c0,0,0,0,0,0C317.6,329.8,318.1,330.4,318.8,331.1z"/>
		</g>
	</g>
</g>
<g id="PALETA_DE_COLOR">
</g>
</svg>
