<?xml version="1.0" encoding="utf-8"?>
<!-- Generator: Adobe Illustrator 24.0.2, SVG Export Plug-In . SVG Version: 6.00 Build 0)  -->
<svg version="1.1" xmlns="http://www.w3.org/2000/svg" xmlns:xlink="http://www.w3.org/1999/xlink" x="0px" y="0px"
	 viewBox="0 0 708.8 580.5" style="enable-background:new 0 0 708.8 580.5;" xml:space="preserve">
<style type="text/css">
	.st0{fill:#17234D;}
	.st1{opacity:0.8;fill:#1B1464;}
	.st2{display:none;}
	.st3{display:inline;opacity:0.3;}
	.st4{opacity:0.3;}
	.st5{opacity:0.5;}
	.st6{opacity:0.5;fill:none;stroke:#00FFFF;stroke-width:0.5;stroke-miterlimit:10;}
	.st7{fill:#EEEEEE;}
	.st8{fill:#666666;}
	
		.st9{fill:none;stroke:#FFFFFF;stroke-width:0.5;stroke-linecap:round;stroke-linejoin:round;stroke-miterlimit:10;stroke-dasharray:12,6,12,6;}
	.st10{fill:none;stroke:#E8E8E8;stroke-width:0.5;stroke-miterlimit:10;}
	.st11{fill:#007FFF;}
	.st12{fill:#F3F8F8;}
	.st13{fill:#17E7DF;}
	.st14{fill:url(#SVGID_27_);}
	.st15{fill:#F2F2F2;}
	.st16{fill:none;stroke:#000000;stroke-width:0.2;stroke-miterlimit:10;}
	.st17{fill:#E91C24;}
	.st18{fill:#C8C8C8;}
	.st19{fill:none;stroke:#C8C8C8;stroke-width:0.5;stroke-miterlimit:10;}
	.st20{fill:url(#SVGID_28_);}
	.st21{fill:url(#SVGID_29_);}
	.st22{fill:url(#SVGID_30_);}
	.st23{fill:url(#SVGID_31_);}
	.st24{fill:url(#SVGID_32_);}
	.st25{fill:url(#SVGID_33_);}
	.st26{fill:url(#SVGID_34_);}
	.st27{fill:url(#SVGID_35_);}
	.st28{fill:url(#SVGID_36_);}
	.st29{fill:url(#SVGID_37_);}
	.st30{fill:url(#SVGID_38_);}
	.st31{fill:url(#SVGID_39_);}
	.st32{fill:url(#SVGID_40_);}
	.st33{fill:url(#SVGID_41_);}
	.st34{fill:url(#SVGID_42_);}
	.st35{fill:url(#SVGID_43_);}
	.st36{fill:#2E4676;}
	.st37{fill:#FFFFFF;}
	.st38{fill:none;stroke:#F9F4EE;stroke-width:2;stroke-miterlimit:10;}
	.st39{fill:#F9F4EE;}
	.st40{fill:#E2E2E2;}
	.st41{fill:url(#SVGID_44_);}
	.st42{fill:url(#SVGID_45_);}
	.st43{fill:url(#SVGID_46_);}
	.st44{fill:url(#SVGID_47_);}
	.st45{fill:url(#SVGID_48_);}
	.st46{fill:url(#SVGID_49_);}
	.st47{fill:url(#SVGID_50_);}
	.st48{fill:url(#SVGID_51_);}
	.st49{fill:url(#SVGID_52_);}
	.st50{fill:url(#SVGID_53_);}
	.st51{fill:url(#SVGID_54_);}
	.st52{fill:url(#SVGID_55_);}
	.st53{fill:url(#SVGID_56_);}
	.st54{opacity:0.5;fill:#2D2D2D;}
	.st55{fill:url(#SVGID_59_);}
	.st56{fill:url(#SVGID_60_);}
	.st57{fill:url(#SVGID_61_);}
	.st58{fill:url(#SVGID_62_);}
	.st59{fill:url(#SVGID_63_);}
	.st60{fill:url(#SVGID_64_);}
	.st61{fill:url(#SVGID_65_);}
	.st62{fill:url(#SVGID_66_);}
	.st63{fill:url(#SVGID_67_);}
	.st64{fill:url(#SVGID_68_);}
	.st65{fill:url(#SVGID_69_);}
	.st66{fill:url(#SVGID_70_);}
	.st67{fill:url(#SVGID_71_);}
	.st68{fill:url(#SVGID_72_);}
	.st69{fill:url(#SVGID_73_);}
	.st70{fill:url(#SVGID_74_);}
</style>
<g id="FONDO">
</g>
<g id="REFERENCIAS">
</g>
<g id="BOCETO" class="st2">
</g>
<g id="GRID">
</g>
<g id="VECTORIZACION">
</g>
<g id="TIPOGRAFIA">
</g>
<g id="LOGO">
	<g>
		<g>
			<linearGradient id="SVGID_2_" gradientUnits="userSpaceOnUse" x1="13.8344" y1="540.5451" x2="498.4546" y2="19.7293">
				<stop  offset="0" style="stop-color:#2E4676"/>
				<stop  offset="0.607" style="stop-color:#007FFF"/>
				<stop  offset="1" style="stop-color:#17E7DF"/>
			</linearGradient>
			<path style="fill:url(#SVGID_2_);" d="M507.5,25.6h-91.9c-23.1,0-44.4,7.9-61.2,21.1c-16.9-13.2-38.2-21.1-61.3-21.1h-91.9
				c-8.5,0-15.3,6.9-15.3,15.3v258.3c0,13.7,7.2,25.8,18.1,32.5l0.9,0.5l0.3,0.1l11.4,6.9l15.7,9.4c0.6,0.3,1.3,0.4,2.1,0.2
				c0.8-0.3,1.4-0.9,1.6-1.7c0.2-0.9,0-1.7-0.5-2.3c-2-2.5-3.9-5.1-5.6-7.8c-8-12.5-12.8-27.3-13.2-43.2c0-0.7,0-1.4,0-2.2
				c0-0.7,0-1.4,0-2.2V61.2c0-2.7,2.2-5,5-5h56.3c19.7,0,38,6.2,53,16.8c8.6,6.1,16,13.5,22.1,22.1c0.7,1,2.2,1,3,0
				c6.1-8.6,13.5-16.1,22.1-22.1c15-10.6,33.2-16.8,53-16.8h56.3c2.7,0,5,2.2,5,5V291c0,0.2,0,0.5,0,0.7s0,0.5,0,0.7
				c-0.1,16.4-5,31.7-13.2,44.6c-1.7,2.7-3.6,5.3-5.6,7.7c0,0,0,0.1-0.1,0.1c-0.4,0.6-0.6,1.3-0.5,2c0.2,1.1,1.2,2,2.3,2.1
				c0.5,0,1-0.1,1.4-0.3c0.1,0,0.1-0.1,0.2-0.1l15.4-9.3l12.2-7.4c11-6.7,18.4-18.9,18.4-32.7V40.9
				C522.8,32.4,515.9,25.6,507.5,25.6z"/>
			<linearGradient id="SVGID_4_" gradientUnits="userSpaceOnUse" x1="57.8953" y1="581.5438" x2="542.5154" y2="60.728">
				<stop  offset="0" style="stop-color:#2E4676"/>
				<stop  offset="0.607" style="stop-color:#007FFF"/>
				<stop  offset="1" style="stop-color:#17E7DF"/>
			</linearGradient>
			<path style="fill:url(#SVGID_4_);" d="M391.9,209c-0.8,4.1-2.3,8-4.3,11.6c-0.2,0.3-0.3,0.5-0.5,0.8l28.6,17.2l10.8,6.5
				c1-1.7,2-3.5,2.9-5.3c2.8-5.5,5-11.3,6.6-17.4c0.8-3.1,1.4-6.3,1.8-9.6c0.5-3.7,0.8-7.5,0.8-11.3c0-32.7-18.7-61.1-46-75
				c-8.6-4.4-18-7.3-28-8.6c-3.4-0.4-6.8-0.6-10.3-0.6c-3.5,0-6.9,0.2-10.3,0.6c-10,1.2-19.4,4.2-28,8.5
				c-14,7.1-25.7,18.1-33.8,31.5c-7.7,12.7-12.1,27.6-12.1,43.5c0,3.8,0.3,7.6,0.8,11.3c0.4,3.3,1,6.5,1.8,9.6
				c1.6,6.1,3.8,11.9,6.6,17.4c4.4,8.6,10.3,16.4,17.2,23c8,7.6,17.5,13.5,27.9,17.5c9.3,3.5,19.4,5.5,29.9,5.5
				c12.3,0,23.2,5.8,30.2,14.7c5.1,6.5,8.1,14.7,8.1,23.6c0,7.2-2,14-5.5,19.7c-5.6,9.2-14.9,16-26,17.9c-2.2,0.4-4.5,0.6-6.9,0.6
				c-2.3,0-4.6-0.2-6.9-0.6c-17.9-3.2-31.4-18.9-31.4-37.7c0-7.3,2-14.1,5.5-19.9l-39.3-23.7c-7.7,12.7-12.1,27.6-12.1,43.6
				c0,19,6.3,36.6,17,50.7c5.8,7.7,13,14.4,21.1,19.8l0,0l5.3,3.2l0.1,0.1c12,6.7,25.9,10.4,40.6,10.4c14.9,0,28.9-3.9,41.1-10.7
				l0,0l4.7-2.8l0,0c8.2-5.3,15.5-12.1,21.4-19.9c1.8-2.3,3.4-4.7,4.9-7.2c7.7-12.7,12.1-27.6,12.1-43.5c0-24.1-10.2-45.9-26.4-61.2
				c-11.9-11.3-27.2-19.1-44.1-21.9c-4.4-0.7-9-1.1-13.7-1.1c-4,0-7.8-0.6-11.4-1.7c-6.9-2.1-12.9-6.2-17.5-11.5
				c-1.6-1.9-3-3.9-4.3-6c-2-3.5-3.5-7.4-4.3-11.6h0c-0.5-2.4-0.7-4.8-0.7-7.4c0-7.2,2-14,5.5-19.8c1.9-3.2,4.3-6,7-8.5
				c3.5-3.2,7.7-5.8,12.2-7.5c4.2-1.6,8.8-2.5,13.6-2.5c4.8,0,9.4,0.9,13.6,2.5c4.6,1.7,8.7,4.3,12.2,7.5c7.7,7,12.5,17.1,12.5,28.3
				C392.7,204.2,392.4,206.7,391.9,209L391.9,209z"/>
			<linearGradient id="SVGID_6_" gradientUnits="userSpaceOnUse" x1="27.3516" y1="553.1229" x2="511.9718" y2="32.3071">
				<stop  offset="0" style="stop-color:#2E4676"/>
				<stop  offset="0.607" style="stop-color:#007FFF"/>
				<stop  offset="1" style="stop-color:#17E7DF"/>
			</linearGradient>
			<path style="fill:url(#SVGID_6_);" d="M361.6,185.4c-2.2-1-4.7-1.5-7.2-1.5c-2.6,0-5,0.6-7.2,1.5c-2.3,1-4.4,2.6-6.1,4.4
				c-0.7,0.8-1.4,1.7-1.9,2.6c-1.6,2.7-2.6,5.8-2.6,9.2c0,3.9,1.2,7.5,3.3,10.4c0,0,0,0,0,0c0.5,0.7,1,1.3,1.6,2
				c2.7,2.8,6.4,4.8,10.5,5.3c0.8,0.1,1.5,0.1,2.3,0.1c0.8,0,1.5,0,2.3-0.1c4.1-0.5,7.8-2.4,10.5-5.3c0.6-0.6,1.1-1.3,1.7-2v0
				c0,0,0,0,0,0c0.3-0.4,0.5-0.8,0.8-1.2c1.6-2.7,2.6-5.8,2.6-9.2c0-4.5-1.7-8.7-4.5-11.8C366,188,364,186.4,361.6,185.4z"/>
			<linearGradient id="SVGID_8_" gradientUnits="userSpaceOnUse" x1="88.4375" y1="609.9635" x2="573.0577" y2="89.1476">
				<stop  offset="0" style="stop-color:#2E4676"/>
				<stop  offset="0.607" style="stop-color:#007FFF"/>
				<stop  offset="1" style="stop-color:#17E7DF"/>
			</linearGradient>
			<path style="fill:url(#SVGID_8_);" d="M341.6,336.5c2.7,2.8,6.4,4.8,10.5,5.3c0.8,0.1,1.5,0.1,2.3,0.1c0.8,0,1.5,0,2.3-0.1
				c4.1-0.5,7.8-2.4,10.5-5.3c0.6-0.6,1.1-1.3,1.7-2v0c0,0,0,0,0,0c0.3-0.4,0.5-0.8,0.8-1.2c1.6-2.7,2.6-5.8,2.6-9.2
				c0-4.5-1.7-8.7-4.5-11.8c-1.7-1.9-3.7-3.4-6.1-4.4c-2.2-1-4.7-1.5-7.2-1.5c-2.6,0-5,0.6-7.2,1.5c-2.3,1-4.4,2.6-6.1,4.4
				c-0.7,0.8-1.4,1.7-1.9,2.6c-1.6,2.7-2.6,5.8-2.6,9.2c0,3.9,1.2,7.5,3.3,10.4c0,0,0,0,0,0C340.4,335.3,341,335.9,341.6,336.5z"/>
		</g>
		<g>
			<linearGradient id="SVGID_10_" gradientUnits="userSpaceOnUse" x1="-67.1982" y1="696.9199" x2="214.0518" y2="234.5449">
				<stop  offset="0" style="stop-color:#2E4676"/>
				<stop  offset="0.607" style="stop-color:#007FFF"/>
				<stop  offset="1" style="stop-color:#17E7DF"/>
			</linearGradient>
			<path style="fill:url(#SVGID_10_);" d="M11.3,539.2l13.9-14c6.5,7.4,14.7,11.1,24.3,11.1c10.4,0,15.3-4.6,15.3-11.7
				c0-5.4-2.2-9.2-11.3-10.4l-9.6-1.3c-20.6-2.6-29.8-12.7-29.8-28.9c0-17.4,13.6-29.5,36.4-29.5c14.6,0,25.7,4.7,33.6,13.6
				l-14,14.2c-4.6-5.4-10.8-9.2-20.9-9.2c-9.5,0-14,3.5-14,9.5c0,6.7,3.3,9.2,11.5,10.4l9.6,1.5c20,3.2,29.5,12,29.5,28.8
				c0,18.6-13.6,31.6-37.8,31.6C31,554.9,19.6,548.5,11.3,539.2z"/>
			<linearGradient id="SVGID_12_" gradientUnits="userSpaceOnUse" x1="-13.8809" y1="729.3513" x2="267.3691" y2="266.9763">
				<stop  offset="0" style="stop-color:#2E4676"/>
				<stop  offset="0.607" style="stop-color:#007FFF"/>
				<stop  offset="1" style="stop-color:#17E7DF"/>
			</linearGradient>
			<path style="fill:url(#SVGID_12_);" d="M99.7,553.2v-16.8h12.5V473H99.7v-16.8h46.2V473h-12.5v63.4h12.5v16.8H99.7z"/>
			<linearGradient id="SVGID_14_" gradientUnits="userSpaceOnUse" x1="50.1269" y1="768.2855" x2="331.3769" y2="305.9106">
				<stop  offset="0" style="stop-color:#2E4676"/>
				<stop  offset="0.607" style="stop-color:#007FFF"/>
				<stop  offset="1" style="stop-color:#17E7DF"/>
			</linearGradient>
			<path style="fill:url(#SVGID_14_);" d="M225.1,537.8h-0.7c-1.5,9.9-10.3,17.1-24.9,17.1c-22.2,0-39.8-17.1-39.8-49.8
				c0-32.7,17.8-50.6,43.9-50.6c17.4,0,30.2,7.5,37.4,22.5l-17.2,9.9c-2.9-7.6-8.9-13.6-20.2-13.6c-13.2,0-21.5,7.4-21.5,23.6v15.6
				c0,16.1,8.3,23.6,21.5,23.6c10.6,0,19-5,19-14.5v-4.9h-18.1v-17.7h38.2v54.1h-17.8V537.8z"/>
			<linearGradient id="SVGID_16_" gradientUnits="userSpaceOnUse" x1="111.0752" y1="805.3587" x2="392.3252" y2="342.9837">
				<stop  offset="0" style="stop-color:#2E4676"/>
				<stop  offset="0.607" style="stop-color:#007FFF"/>
				<stop  offset="1" style="stop-color:#17E7DF"/>
			</linearGradient>
			<path style="fill:url(#SVGID_16_);" d="M263.5,456.2H300c25.7,0,42.7,16.3,42.7,48.5s-17,48.5-42.7,48.5h-36.6V456.2z M300,534.5
				c12.7,0,20.3-6.7,20.3-22.2v-15c0-15.6-7.6-22.2-20.3-22.2h-15.4v59.5H300z"/>
			<linearGradient id="SVGID_18_" gradientUnits="userSpaceOnUse" x1="187.9625" y1="852.1271" x2="469.2125" y2="389.7521">
				<stop  offset="0" style="stop-color:#2E4676"/>
				<stop  offset="0.607" style="stop-color:#007FFF"/>
				<stop  offset="1" style="stop-color:#17E7DF"/>
			</linearGradient>
			<path style="fill:url(#SVGID_18_);" d="M356.6,504.7c0-33,17-50.2,42.7-50.2c25.7,0,42.7,17.2,42.7,50.2s-17,50.2-42.7,50.2
				C373.6,554.9,356.6,537.7,356.6,504.7z M419.6,511.9v-14.5c0-15.6-7.5-24.2-20.3-24.2c-12.8,0-20.3,8.6-20.3,24.2v14.5
				c0,15.6,7.5,24.2,20.3,24.2C412.1,536.1,419.6,527.5,419.6,511.9z"/>
			<linearGradient id="SVGID_20_" gradientUnits="userSpaceOnUse" x1="241.6966" y1="884.8121" x2="522.9467" y2="422.4371">
				<stop  offset="0" style="stop-color:#2E4676"/>
				<stop  offset="0.607" style="stop-color:#007FFF"/>
				<stop  offset="1" style="stop-color:#17E7DF"/>
			</linearGradient>
			<path style="fill:url(#SVGID_20_);" d="M496.6,475v78.3h-21.1V475h-26.3v-18.8h73.7V475H496.6z"/>
			<linearGradient id="SVGID_22_" gradientUnits="userSpaceOnUse" x1="312.8348" y1="928.0836" x2="594.0848" y2="465.7085">
				<stop  offset="0" style="stop-color:#2E4676"/>
				<stop  offset="0.607" style="stop-color:#007FFF"/>
				<stop  offset="1" style="stop-color:#17E7DF"/>
			</linearGradient>
			<path style="fill:url(#SVGID_22_);" d="M537.3,553.2v-97h66V475h-44.9v19.9H597v18.6h-38.5v21h44.9v18.8H537.3z"/>
			<linearGradient id="SVGID_24_" gradientUnits="userSpaceOnUse" x1="378.5152" y1="968.0351" x2="659.7652" y2="505.6601">
				<stop  offset="0" style="stop-color:#2E4676"/>
				<stop  offset="0.607" style="stop-color:#007FFF"/>
				<stop  offset="1" style="stop-color:#17E7DF"/>
			</linearGradient>
			<path style="fill:url(#SVGID_24_);" d="M618,505.4c0-32.8,16.8-50.9,43-50.9c17.9,0,29.2,7.1,36.3,22.8l-18.2,9.5
				c-2.6-8.2-7.5-13.5-18.1-13.5c-12.4,0-20.6,8.2-20.6,23.6v15.6c0,15.4,8.2,23.6,20.6,23.6c10.4,0,16.4-6.5,19.3-14.5l17.2,10
				c-7.2,14.9-18.6,23.2-36.6,23.2C634.8,554.9,618,538.2,618,505.4z"/>
		</g>
	</g>
</g>
</svg>
