<?xml version="1.0" encoding="utf-8"?>
<!-- Generator: Adobe Illustrator 24.0.2, SVG Export Plug-In . SVG Version: 6.00 Build 0)  -->
<svg version="1.1" xmlns="http://www.w3.org/2000/svg" xmlns:xlink="http://www.w3.org/1999/xlink" x="0px" y="0px"
	 viewBox="0 0 858 290.7" style="enable-background:new 0 0 858 290.7;" xml:space="preserve">
<style type="text/css">
	.st0{fill:#4D4D4D;}
	.st1{fill:#17234D;}
	.st2{fill:#007FFF;}
	.st3{fill:url(#SVGID_1_);}
	.st4{fill:url(#SVGID_2_);}
	.st5{fill:url(#SVGID_3_);}
	.st6{fill:#FFFFFF;}
	.st7{fill:url(#SVGID_4_);}
	.st8{fill:url(#SVGID_5_);}
	.st9{fill:#F5FAFA;}
	.st10{fill:url(#SVGID_6_);}
	.st11{fill:url(#SVGID_7_);}
	.st12{fill:url(#SVGID_8_);}
	.st13{fill:url(#SVGID_9_);}
	.st14{fill:url(#SVGID_10_);}
	.st15{fill:url(#SVGID_11_);}
	.st16{fill:url(#SVGID_12_);}
	.st17{fill:url(#SVGID_13_);}
	.st18{fill:url(#SVGID_14_);}
	.st19{fill:url(#SVGID_15_);}
	.st20{fill:url(#SVGID_16_);}
	.st21{fill:url(#SVGID_17_);}
	.st22{fill:url(#SVGID_18_);}
	.st23{fill:url(#SVGID_19_);}
	.st24{fill:url(#SVGID_20_);}
	.st25{fill:url(#SVGID_21_);}
	.st26{fill:url(#SVGID_22_);}
	.st27{fill:url(#SVGID_23_);}
	.st28{fill:url(#SVGID_24_);}
	.st29{fill:url(#SVGID_25_);}
	.st30{fill:url(#SVGID_26_);}
	.st31{fill:url(#SVGID_27_);}
	.st32{fill:url(#SVGID_28_);}
	.st33{fill:url(#SVGID_29_);}
	.st34{fill:url(#SVGID_30_);}
	.st35{fill:url(#SVGID_31_);}
	.st36{fill:#17E9E1;}
	.st37{fill:url(#SVGID_32_);}
</style>
<g id="FODNO">
</g>
<g id="LOGO">
	<g>
		<g>
			<g>
				<g>
					<path class="st9" d="M314.1,188.7l17.5-17.7c8.2,9.3,18.5,14,30.6,14c13.1,0,19.2-5.8,19.2-14.7c0-6.8-2.8-11.5-14.2-13.1
						l-12.1-1.6c-25.9-3.3-37.4-15.9-37.4-36.4c0-21.9,17.1-37.1,45.8-37.1c18.4,0,32.4,5.9,42.3,17.1l-17.7,17.8
						c-5.8-6.8-13.6-11.5-26.2-11.5c-11.9,0-17.7,4.4-17.7,11.9c0,8.4,4.2,11.5,14.5,13.1l12.1,1.9c25.2,4,37.1,15,37.1,36.2
						c0,23.4-17.1,39.7-47.6,39.7C339,208.5,324.6,200.5,314.1,188.7z"/>
					<path class="st9" d="M425.4,206.4v-21.2h15.7v-79.8h-15.7V84.3h58.1v21.2h-15.7v79.8h15.7v21.2H425.4z"/>
					<path class="st9" d="M583.2,187h-0.9c-1.9,12.4-12.9,21.5-31.3,21.5c-28,0-50-21.5-50-62.6s22.4-63.7,55.3-63.7
						c21.9,0,38,9.4,47.1,28.3l-21.7,12.4c-3.7-9.6-11.2-17.1-25.4-17.1c-16.6,0-27.1,9.3-27.1,29.7v19.6
						c0,20.3,10.5,29.7,27.1,29.7c13.3,0,24-6.3,24-18.2v-6.1h-22.7v-22.2H598c4.2,0,7.6,3.4,7.6,7.6v60.5h-22.4V187z"/>
					<path class="st9" d="M631.5,84.3h46c32.4,0,53.7,20.5,53.7,61.1c0,40.6-21.3,61.1-53.7,61.1h-46V84.3z M677.5,182.8
						c15.9,0,25.5-8.4,25.5-28v-18.9c0-19.6-9.6-28-25.5-28h-19.4v74.9H677.5z"/>
					<path class="st9" d="M748.7,145.3c0-41.5,21.3-63.2,53.7-63.2c32.4,0,53.7,21.7,53.7,63.2s-21.3,63.2-53.7,63.2
						C770.1,208.5,748.7,186.8,748.7,145.3z M828,154.4v-18.2c0-19.6-9.4-30.4-25.5-30.4c-16.1,0-25.5,10.8-25.5,30.4v18.2
						c0,19.6,9.4,30.4,25.5,30.4C818.5,184.9,828,174,828,154.4z"/>
				</g>
			</g>
			<g>
				<path class="st9" d="M244.5,0.9h-69.3c-17.4,0-33.5,5.9-46.2,15.9c-12.7-10-28.8-15.9-46.2-15.9H13.4C7,0.9,1.8,6.1,1.8,12.5
					v194.9c0,10.4,5.5,19.4,13.6,24.5l0.7,0.4l0.2,0.1l8.6,5.2l11.8,7.1c0.4,0.2,1,0.3,1.6,0.1c0.6-0.2,1.1-0.7,1.2-1.3
					c0.2-0.7,0-1.3-0.4-1.8c-1.5-1.9-2.9-3.8-4.3-5.9c-6-9.4-9.7-20.6-10-32.6c0-0.5,0-1.1,0-1.6c0-0.6,0-1.1,0-1.6V27.8
					c0-2.1,1.7-3.7,3.7-3.7h42.5c14.9,0,28.7,4.7,40,12.7c6.5,4.6,12.1,10.2,16.7,16.7c0.5,0.8,1.7,0.8,2.2,0
					c4.6-6.5,10.2-12.1,16.7-16.7c11.3-8,25.1-12.7,40-12.7h42.5c2.1,0,3.7,1.7,3.7,3.7v173.5c0,0.2,0,0.4,0,0.5c0,0.2,0,0.4,0,0.5
					c-0.1,12.4-3.7,23.9-10,33.7c-1.3,2-2.7,4-4.2,5.8c0,0,0,0.1-0.1,0.1c-0.3,0.4-0.5,1-0.4,1.5c0.1,0.8,0.9,1.5,1.7,1.6
					c0.4,0,0.8-0.1,1.1-0.2c0.1,0,0.1-0.1,0.2-0.1l11.7-7l9.2-5.6c8.3-5.1,13.9-14.2,13.9-24.7V12.5C256,6.1,250.9,0.9,244.5,0.9z"
					/>
				<path class="st9" d="M157.3,139.4c-0.6,3.1-1.7,6.1-3.3,8.8c-0.1,0.2-0.2,0.4-0.4,0.6l21.6,13l8.1,4.9c0.8-1.3,1.5-2.6,2.2-4
					c2.1-4.1,3.8-8.5,5-13.1c0.6-2.4,1.1-4.8,1.4-7.2c0.4-2.8,0.6-5.6,0.6-8.5c0-24.7-14.1-46.1-34.7-56.6
					c-6.5-3.3-13.6-5.5-21.1-6.5c-2.5-0.3-5.1-0.5-7.8-0.5c-2.6,0-5.2,0.2-7.8,0.5c-7.5,0.9-14.6,3.1-21.1,6.5
					c-10.6,5.4-19.4,13.7-25.5,23.8c-5.8,9.6-9.1,20.8-9.1,32.8c0,2.9,0.2,5.7,0.6,8.5c0.3,2.5,0.8,4.9,1.4,7.2
					c1.2,4.6,2.8,9,5,13.1c3.3,6.5,7.7,12.4,13,17.3c6,5.7,13.2,10.2,21.1,13.2c7,2.7,14.6,4.1,22.5,4.1c9.2,0,17.5,4.3,22.8,11.1
					c3.8,4.9,6.1,11.1,6.1,17.8c0,5.4-1.5,10.5-4.1,14.9c-4.2,7-11.3,12-19.6,13.5c-1.7,0.3-3.4,0.5-5.2,0.5c-1.8,0-3.5-0.2-5.2-0.5
					c-13.5-2.4-23.7-14.2-23.7-28.4c0-5.5,1.5-10.6,4.2-15l-29.7-17.9c-5.8,9.6-9.2,20.9-9.2,32.9c0,14.4,4.8,27.6,12.8,38.3
					c4.4,5.8,9.8,10.9,15.9,14.9l0,0l4,2.4l0.1,0.1c9.1,5,19.5,7.9,30.7,7.9c11.3,0,21.8-2.9,31-8.1l0,0l3.6-2.2l0,0
					c6.2-4,11.7-9.1,16.1-15c1.3-1.8,2.6-3.6,3.7-5.5c5.8-9.6,9.1-20.8,9.1-32.8c0-18.2-7.7-34.6-19.9-46.2
					c-9-8.5-20.5-14.4-33.3-16.5c-3.4-0.6-6.8-0.8-10.3-0.8c-3,0-5.9-0.5-8.6-1.3c-5.2-1.6-9.8-4.7-13.2-8.7
					c-1.2-1.4-2.3-2.9-3.2-4.6c-1.5-2.7-2.6-5.6-3.2-8.8h0c-0.4-1.8-0.5-3.7-0.5-5.6c0-5.5,1.5-10.6,4.1-14.9
					c1.4-2.4,3.2-4.5,5.3-6.4c2.7-2.4,5.8-4.4,9.2-5.7c3.2-1.2,6.6-1.9,10.2-1.9c3.6,0,7.1,0.7,10.3,1.9c3.4,1.3,6.6,3.3,9.2,5.7
					c5.8,5.3,9.4,12.9,9.4,21.3C157.8,135.7,157.6,137.6,157.3,139.4L157.3,139.4z"/>
				<path class="st9" d="M134.4,121.5c-1.7-0.7-3.5-1.2-5.5-1.2c-1.9,0-3.8,0.4-5.5,1.2c-1.8,0.8-3.3,1.9-4.6,3.4
					c-0.5,0.6-1,1.3-1.5,2c-1.2,2-1.9,4.4-1.9,6.9c0,2.9,0.9,5.6,2.5,7.8c0,0,0,0,0,0c0.4,0.5,0.8,1,1.2,1.5c2.1,2.1,4.8,3.6,7.9,4
					c0.6,0.1,1.1,0.1,1.7,0.1c0.6,0,1.2,0,1.7-0.1c3.1-0.4,5.9-1.8,7.9-4c0.5-0.5,0.9-1,1.2-1.5v0c0,0,0,0,0,0
					c0.2-0.3,0.4-0.6,0.6-0.9c1.2-2,1.9-4.4,1.9-6.9c0-3.4-1.3-6.5-3.4-8.9C137.7,123.4,136.1,122.3,134.4,121.5z"/>
				<path class="st9" d="M119.3,235.6c2.1,2.1,4.8,3.6,7.9,4c0.6,0.1,1.1,0.1,1.7,0.1c0.6,0,1.2,0,1.7-0.1c3.1-0.4,5.9-1.8,7.9-4
					c0.5-0.5,0.9-1,1.2-1.5v0c0,0,0,0,0,0c0.2-0.3,0.4-0.6,0.6-0.9c1.2-2,1.9-4.4,1.9-6.9c0-3.4-1.3-6.5-3.4-8.9
					c-1.3-1.4-2.8-2.6-4.6-3.4c-1.7-0.7-3.5-1.2-5.5-1.2c-1.9,0-3.8,0.4-5.5,1.2c-1.8,0.8-3.3,1.9-4.6,3.4c-0.5,0.6-1,1.3-1.5,2
					c-1.2,2-1.9,4.4-1.9,6.9c0,2.9,0.9,5.6,2.5,7.8c0,0,0,0,0,0C118.4,234.6,118.8,235.1,119.3,235.6z"/>
			</g>
		</g>
	</g>
</g>
<g id="PALETA_DE_COLOR">
</g>
</svg>
