<?xml version="1.0" encoding="utf-8"?>
<!-- Generator: Adobe Illustrator 24.0.2, SVG Export Plug-In . SVG Version: 6.00 Build 0)  -->
<svg version="1.1" xmlns="http://www.w3.org/2000/svg" xmlns:xlink="http://www.w3.org/1999/xlink" x="0px" y="0px"
	 viewBox="0 0 788.2 237.3" style="enable-background:new 0 0 788.2 237.3;" xml:space="preserve">
<style type="text/css">
	.st0{fill:#17234D;}
	.st1{opacity:0.8;fill:#1B1464;}
	.st2{display:none;}
	.st3{display:inline;opacity:0.3;}
	.st4{opacity:0.3;}
	.st5{opacity:0.5;}
	.st6{opacity:0.5;fill:none;stroke:#00FFFF;stroke-width:0.5;stroke-miterlimit:10;}
	.st7{fill:#EEEEEE;}
	.st8{fill:#666666;}
	
		.st9{fill:none;stroke:#FFFFFF;stroke-width:0.5;stroke-linecap:round;stroke-linejoin:round;stroke-miterlimit:10;stroke-dasharray:12,6,12,6;}
	.st10{fill:none;stroke:#E8E8E8;stroke-width:0.5;stroke-miterlimit:10;}
	.st11{fill:#007FFF;}
	.st12{fill:#F3F8F8;}
	.st13{fill:#17E7DF;}
	.st14{fill:url(#SVGID_27_);}
	.st15{fill:#F2F2F2;}
	.st16{fill:none;stroke:#000000;stroke-width:0.2;stroke-miterlimit:10;}
	.st17{fill:#E91C24;}
	.st18{fill:#C8C8C8;}
	.st19{fill:none;stroke:#C8C8C8;stroke-width:0.5;stroke-miterlimit:10;}
	.st20{fill:url(#SVGID_28_);}
	.st21{fill:url(#SVGID_29_);}
	.st22{fill:url(#SVGID_30_);}
	.st23{fill:url(#SVGID_31_);}
	.st24{fill:url(#SVGID_32_);}
	.st25{fill:url(#SVGID_33_);}
	.st26{fill:url(#SVGID_34_);}
	.st27{fill:url(#SVGID_35_);}
	.st28{fill:url(#SVGID_36_);}
	.st29{fill:url(#SVGID_37_);}
	.st30{fill:url(#SVGID_38_);}
	.st31{fill:url(#SVGID_39_);}
	.st32{fill:url(#SVGID_40_);}
	.st33{fill:url(#SVGID_41_);}
	.st34{fill:url(#SVGID_42_);}
	.st35{fill:url(#SVGID_43_);}
	.st36{fill:#2E4676;}
	.st37{fill:#FFFFFF;}
	.st38{fill:none;stroke:#F9F4EE;stroke-width:2;stroke-miterlimit:10;}
	.st39{fill:#F9F4EE;}
	.st40{fill:#E2E2E2;}
	.st41{fill:url(#SVGID_44_);}
	.st42{fill:url(#SVGID_45_);}
	.st43{fill:url(#SVGID_46_);}
	.st44{fill:url(#SVGID_47_);}
	.st45{fill:url(#SVGID_48_);}
	.st46{fill:url(#SVGID_49_);}
	.st47{fill:url(#SVGID_50_);}
	.st48{fill:url(#SVGID_51_);}
	.st49{fill:url(#SVGID_52_);}
	.st50{fill:url(#SVGID_53_);}
	.st51{fill:url(#SVGID_54_);}
	.st52{fill:url(#SVGID_55_);}
	.st53{fill:url(#SVGID_56_);}
	.st54{opacity:0.5;fill:#2D2D2D;}
	.st55{fill:url(#SVGID_59_);}
	.st56{fill:url(#SVGID_60_);}
	.st57{fill:url(#SVGID_61_);}
	.st58{fill:url(#SVGID_62_);}
	.st59{fill:url(#SVGID_63_);}
	.st60{fill:url(#SVGID_64_);}
	.st61{fill:url(#SVGID_65_);}
	.st62{fill:url(#SVGID_66_);}
	.st63{fill:url(#SVGID_67_);}
	.st64{fill:url(#SVGID_68_);}
	.st65{fill:url(#SVGID_69_);}
	.st66{fill:url(#SVGID_70_);}
	.st67{fill:url(#SVGID_71_);}
	.st68{fill:url(#SVGID_72_);}
	.st69{fill:url(#SVGID_73_);}
	.st70{fill:url(#SVGID_74_);}
</style>
<g id="FONDO">
</g>
<g id="REFERENCIAS">
</g>
<g id="BOCETO" class="st2">
</g>
<g id="GRID">
</g>
<g id="VECTORIZACION">
</g>
<g id="TIPOGRAFIA">
	<g>
		<g>
			<linearGradient id="SVGID_2_" gradientUnits="userSpaceOnUse" x1="20.6028" y1="278.7126" x2="203.5811" y2="58.7867">
				<stop  offset="0" style="stop-color:#17234D"/>
				<stop  offset="0.607" style="stop-color:#007FFF"/>
				<stop  offset="1" style="stop-color:#17E7DF"/>
			</linearGradient>
			<path style="fill:url(#SVGID_2_);" d="M105.9,188.5c2.7,0,5.1-0.8,7.2-2.3c1.4-1,2.6-2.3,3.4-3.7c0.8-1.4,1.4-3,1.6-4.6
				c0.1-0.6,0.1-1.1,0.1-1.7c0-6.8-5.5-12.3-12.3-12.3c-4.5,0-8.4,2.4-10.5,5.9c-1.1,1.9-1.8,4.1-1.8,6.4c0,0.6,0,1.2,0.1,1.7
				c0,0,0,0,0,0c0.5,3.4,2.4,6.4,5,8.3v0C100.7,187.7,103.2,188.5,105.9,188.5z"/>
			<linearGradient id="SVGID_4_" gradientUnits="userSpaceOnUse" x1="-18.9798" y1="245.7798" x2="163.9985" y2="25.854">
				<stop  offset="0" style="stop-color:#17234D"/>
				<stop  offset="0.607" style="stop-color:#007FFF"/>
				<stop  offset="1" style="stop-color:#17E7DF"/>
			</linearGradient>
			<path style="fill:url(#SVGID_4_);" d="M188.1,15.9h-49.3c-12.4,0-23.8,4.2-32.9,11.3C96.8,20.1,85.4,15.9,73,15.9H23.7
				c-4.5,0-8.2,3.7-8.2,8.2v138.7c0,7.4,3.9,13.8,9.7,17.5l0.5,0.3l0.1,0.1l6.1,3.7l8.4,5.1c0.3,0.2,0.7,0.2,1.1,0.1
				c0.4-0.1,0.7-0.5,0.9-0.9c0.1-0.5,0-0.9-0.3-1.2c-1.1-1.3-2.1-2.7-3-4.2c-4.3-6.7-6.9-14.7-7.1-23.2c0-0.4,0-0.8,0-1.2
				s0-0.8,0-1.2V35c0-1.5,1.2-2.7,2.7-2.7h30.2c10.6,0,20.4,3.3,28.4,9c4.6,3.2,8.6,7.3,11.9,11.9c0.4,0.5,1.2,0.5,1.6,0
				c3.2-4.6,7.3-8.6,11.9-11.9c8-5.7,17.8-9,28.4-9h30.2c1.5,0,2.7,1.2,2.7,2.7v123.4c0,0.1,0,0.3,0,0.4c0,0.1,0,0.3,0,0.4
				c-0.1,8.8-2.7,17-7.1,24c-0.9,1.4-1.9,2.8-3,4.2c0,0,0,0,0,0.1c-0.2,0.3-0.3,0.7-0.3,1.1c0.1,0.6,0.6,1.1,1.2,1.1
				c0.3,0,0.5,0,0.8-0.2c0,0,0.1,0,0.1-0.1l8.3-5l6.5-4c5.9-3.6,9.9-10.1,9.9-17.6V24.1C196.3,19.6,192.6,15.9,188.1,15.9z"/>
			<linearGradient id="SVGID_6_" gradientUnits="userSpaceOnUse" x1="4.4362" y1="265.262" x2="187.4145" y2="45.3361">
				<stop  offset="0" style="stop-color:#17234D"/>
				<stop  offset="0.607" style="stop-color:#007FFF"/>
				<stop  offset="1" style="stop-color:#17E7DF"/>
			</linearGradient>
			<path style="fill:url(#SVGID_6_);" d="M126.1,114.4c-0.4,2.2-1.2,4.3-2.3,6.2c-0.1,0.1-0.2,0.3-0.3,0.4l15.3,9.3l5.8,3.5
				c0.6-0.9,1.1-1.9,1.6-2.8c1.5-2.9,2.7-6.1,3.5-9.3c0.4-1.7,0.8-3.4,1-5.1c0.3-2,0.4-4,0.4-6.1c0-17.6-10-32.8-24.7-40.3
				c-4.6-2.4-9.7-3.9-15-4.6c-1.8-0.2-3.7-0.3-5.5-0.3c-1.9,0-3.7,0.1-5.5,0.3c-5.4,0.6-10.4,2.2-15,4.6
				c-7.5,3.8-13.8,9.7-18.2,16.9c-4.1,6.8-6.5,14.8-6.5,23.4c0,2.1,0.1,4.1,0.4,6.1c0.2,1.7,0.6,3.5,1,5.1c0.8,3.3,2,6.4,3.5,9.3
				c2.4,4.6,5.5,8.8,9.3,12.3c4.3,4.1,9.4,7.3,15,9.4c5,1.9,10.4,2.9,16,2.9c6.6,0,12.4,3.1,16.2,7.9c2.7,3.5,4.4,7.9,4.4,12.6
				c0,3.9-1.1,7.5-2.9,10.6c-3,5-8,8.6-13.9,9.6c-1.2,0.2-2.4,0.3-3.7,0.3s-2.5-0.1-3.7-0.3c-9.6-1.7-16.9-10.1-16.9-20.2
				c0-3.9,1.1-7.6,3-10.7l-21.1-12.7c-4.1,6.8-6.5,14.8-6.5,23.4c0,10.2,3.4,19.6,9.1,27.2c3.1,4.2,7,7.7,11.3,10.6l0,0l2.9,1.7
				l0.1,0c6.5,3.6,13.9,5.6,21.8,5.6c8,0,15.5-2.1,22.1-5.7l0,0l2.5-1.5l0,0c4.4-2.9,8.3-6.5,11.5-10.7c0.9-1.2,1.8-2.5,2.6-3.9
				c4.1-6.8,6.5-14.8,6.5-23.3c0-13-5.5-24.6-14.2-32.9c-6.4-6.1-14.6-10.3-23.7-11.7c-2.4-0.4-4.8-0.6-7.3-0.6
				c-2.1,0-4.2-0.3-6.1-0.9c-3.7-1.2-6.9-3.3-9.4-6.2c-0.9-1-1.6-2.1-2.3-3.2c-1.1-1.9-1.9-4-2.3-6.2h0c-0.3-1.3-0.4-2.6-0.4-4
				c0-3.9,1.1-7.5,3-10.6c1-1.7,2.3-3.2,3.7-4.6c1.9-1.7,4.1-3.1,6.6-4c2.3-0.9,4.7-1.3,7.3-1.3c2.6,0,5,0.5,7.3,1.3
				c2.4,0.9,4.7,2.3,6.6,4c4.1,3.8,6.7,9.2,6.7,15.2C126.4,111.8,126.3,113.1,126.1,114.4L126.1,114.4z"/>
			<linearGradient id="SVGID_8_" gradientUnits="userSpaceOnUse" x1="-11.7289" y1="251.8126" x2="171.2495" y2="31.8867">
				<stop  offset="0" style="stop-color:#17234D"/>
				<stop  offset="0.607" style="stop-color:#007FFF"/>
				<stop  offset="1" style="stop-color:#17E7DF"/>
			</linearGradient>
			<path style="fill:url(#SVGID_8_);" d="M110.9,99.2c-1.5-0.7-3.2-1.1-5-1.1s-3.5,0.4-5,1.1c-1.6,0.7-3,1.8-4.2,3.1
				c-0.5,0.6-0.9,1.2-1.3,1.8c-1.1,1.9-1.8,4-1.8,6.4c0,2.7,0.9,5.2,2.3,7.2c0,0,0,0,0,0c0.3,0.5,0.7,0.9,1.1,1.4
				c1.9,2,4.4,3.3,7.3,3.7c0.5,0.1,1,0.1,1.6,0.1s1.1,0,1.6-0.1c2.8-0.4,5.4-1.7,7.3-3.7c0.4-0.4,0.8-0.9,1.1-1.4v0c0,0,0,0,0,0
				c0.2-0.3,0.4-0.5,0.5-0.8c1.1-1.9,1.8-4,1.8-6.4c0-3.1-1.2-6-3.1-8.2C114,100.9,112.5,99.9,110.9,99.2z"/>
		</g>
		<g>
			<linearGradient id="SVGID_10_" gradientUnits="userSpaceOnUse" x1="9.6758" y1="327.632" x2="583.4258" y2="-145.993">
				<stop  offset="0" style="stop-color:#2E4676"/>
				<stop  offset="0.607" style="stop-color:#007FFF"/>
				<stop  offset="1" style="stop-color:#17E7DF"/>
			</linearGradient>
			<path style="fill:url(#SVGID_10_);" d="M232.6,145.8l10.9-11c5.1,5.8,11.6,8.8,19.1,8.8c8.2,0,12-3.6,12-9.2
				c0-4.3-1.8-7.2-8.9-8.2l-7.5-1c-16.2-2.1-23.4-10-23.4-22.8c0-13.7,10.7-23.2,28.7-23.2c11.5,0,20.2,3.7,26.5,10.7L279,101
				c-3.6-4.3-8.5-7.2-16.4-7.2c-7.4,0-11,2.7-11,7.4c0,5.3,2.6,7.2,9.1,8.2l7.5,1.2c15.8,2.5,23.2,9.4,23.2,22.6
				c0,14.7-10.7,24.8-29.8,24.8C248.2,158.2,239.2,153.1,232.6,145.8z"/>
			<linearGradient id="SVGID_12_" gradientUnits="userSpaceOnUse" x1="33.0018" y1="355.8892" x2="606.7518" y2="-117.7358">
				<stop  offset="0" style="stop-color:#2E4676"/>
				<stop  offset="0.607" style="stop-color:#007FFF"/>
				<stop  offset="1" style="stop-color:#17E7DF"/>
			</linearGradient>
			<path style="fill:url(#SVGID_12_);" d="M302.2,156.8v-13.2h9.8V93.7h-9.8V80.5h36.3v13.2h-9.8v49.9h9.8v13.2H302.2z"/>
			<linearGradient id="SVGID_14_" gradientUnits="userSpaceOnUse" x1="62.0889" y1="391.1253" x2="635.8389" y2="-82.4997">
				<stop  offset="0" style="stop-color:#2E4676"/>
				<stop  offset="0.607" style="stop-color:#007FFF"/>
				<stop  offset="1" style="stop-color:#17E7DF"/>
			</linearGradient>
			<path style="fill:url(#SVGID_14_);" d="M400.9,144.7h-0.5c-1.2,7.8-8.1,13.5-19.6,13.5c-17.5,0-31.3-13.5-31.3-39.2
				c0-25.7,14-39.8,34.6-39.8c13.7,0,23.7,5.9,29.4,17.7l-13.6,7.8c-2.3-6-7-10.7-15.9-10.7c-10.4,0-17,5.8-17,18.6v12.3
				c0,12.7,6.6,18.6,17,18.6c8.3,0,15-3.9,15-11.4v-3.8h-14.2v-13.9h30.1v42.6h-14V144.7z"/>
			<linearGradient id="SVGID_16_" gradientUnits="userSpaceOnUse" x1="86.3781" y1="420.5493" x2="660.1281" y2="-53.0757">
				<stop  offset="0" style="stop-color:#2E4676"/>
				<stop  offset="0.607" style="stop-color:#007FFF"/>
				<stop  offset="1" style="stop-color:#17E7DF"/>
			</linearGradient>
			<path style="fill:url(#SVGID_16_);" d="M431.1,80.5h28.8c20.2,0,33.6,12.8,33.6,38.2s-13.3,38.2-33.6,38.2h-28.8V80.5z
				 M459.9,142.1c10,0,16-5.3,16-17.5v-11.8c0-12.3-6-17.5-16-17.5h-12.1v46.8H459.9z"/>
			<linearGradient id="SVGID_18_" gradientUnits="userSpaceOnUse" x1="121.1935" y1="462.7246" x2="694.9435" y2="-10.9004">
				<stop  offset="0" style="stop-color:#2E4676"/>
				<stop  offset="0.607" style="stop-color:#007FFF"/>
				<stop  offset="1" style="stop-color:#17E7DF"/>
			</linearGradient>
			<path style="fill:url(#SVGID_18_);" d="M504.4,118.7c0-25.9,13.3-39.5,33.6-39.5c20.2,0,33.6,13.6,33.6,39.5
				s-13.3,39.5-33.6,39.5C517.8,158.2,504.4,144.6,504.4,118.7z M554,124.3V113c0-12.3-5.9-19-16-19c-10.1,0-16,6.8-16,19v11.4
				c0,12.3,5.9,19,16,19C548.1,143.4,554,136.6,554,124.3z"/>
			<linearGradient id="SVGID_20_" gradientUnits="userSpaceOnUse" x1="144.6715" y1="491.166" x2="718.4215" y2="17.541">
				<stop  offset="0" style="stop-color:#2E4676"/>
				<stop  offset="0.607" style="stop-color:#007FFF"/>
				<stop  offset="1" style="stop-color:#17E7DF"/>
			</linearGradient>
			<path style="fill:url(#SVGID_20_);" d="M614.6,95.2v61.6H598V95.2h-20.7V80.5h58v14.8H614.6z"/>
			<linearGradient id="SVGID_22_" gradientUnits="userSpaceOnUse" x1="175.754" y1="528.8193" x2="749.504" y2="55.1944">
				<stop  offset="0" style="stop-color:#2E4676"/>
				<stop  offset="0.607" style="stop-color:#007FFF"/>
				<stop  offset="1" style="stop-color:#17E7DF"/>
			</linearGradient>
			<path style="fill:url(#SVGID_22_);" d="M646.6,156.8V80.5h52v14.8h-35.3v15.6h30.3v14.7h-30.3v16.5h35.3v14.8H646.6z"/>
			<linearGradient id="SVGID_24_" gradientUnits="userSpaceOnUse" x1="204.5033" y1="563.6462" x2="778.2532" y2="90.0212">
				<stop  offset="0" style="stop-color:#2E4676"/>
				<stop  offset="0.607" style="stop-color:#007FFF"/>
				<stop  offset="1" style="stop-color:#17E7DF"/>
			</linearGradient>
			<path style="fill:url(#SVGID_24_);" d="M710.1,119.2c0-25.8,13.2-40,33.8-40c14.1,0,23,5.6,28.6,17.9l-14.3,7.4
				c-2.1-6.5-5.9-10.6-14.2-10.6c-9.7,0-16.2,6.5-16.2,18.6v12.3c0,12.1,6.5,18.6,16.2,18.6c8.2,0,12.9-5.1,15.2-11.4l13.6,7.9
				c-5.7,11.7-14.7,18.3-28.8,18.3C723.3,158.2,710.1,145,710.1,119.2z"/>
		</g>
	</g>
</g>
<g id="LOGO">
</g>
</svg>
